<svg width="13" height="15" viewBox="0 0 13 15" fill="none" xmlns="http://www.w3.org/2000/svg">
<path d="M4.04688 8.125C4.21094 8.125 4.375 7.98828 4.375 7.79688V6.70312C4.375 6.53906 4.21094 6.375 4.04688 6.375H2.95312C2.76172 6.375 2.625 6.53906 2.625 6.70312V7.79688C2.625 7.98828 2.76172 8.125 2.95312 8.125H4.04688ZM7 7.79688V6.70312C7 6.53906 6.83594 6.375 6.67188 6.375H5.57812C5.38672 6.375 5.25 6.53906 5.25 6.70312V7.79688C5.25 7.98828 5.38672 8.125 5.57812 8.125H6.67188C6.83594 8.125 7 7.98828 7 7.79688ZM9.625 7.79688V6.70312C9.625 6.53906 9.46094 6.375 9.29688 6.375H8.20312C8.01172 6.375 7.875 6.53906 7.875 6.70312V7.79688C7.875 7.98828 8.01172 8.125 8.20312 8.125H9.29688C9.46094 8.125 9.625 7.98828 9.625 7.79688ZM7 10.4219V9.32812C7 9.16406 6.83594 9 6.67188 9H5.57812C5.38672 9 5.25 9.16406 5.25 9.32812V10.4219C5.25 10.6133 5.38672 10.75 5.57812 10.75H6.67188C6.83594 10.75 7 10.6133 7 10.4219ZM4.375 10.4219V9.32812C4.375 9.16406 4.21094 9 4.04688 9H2.95312C2.76172 9 2.625 9.16406 2.625 9.32812V10.4219C2.625 10.6133 2.76172 10.75 2.95312 10.75H4.04688C4.21094 10.75 4.375 10.6133 4.375 10.4219ZM9.625 10.4219V9.32812C9.625 9.16406 9.46094 9 9.29688 9H8.20312C8.01172 9 7.875 9.16406 7.875 9.32812V10.4219C7.875 10.6133 8.01172 10.75 8.20312 10.75H9.29688C9.46094 10.75 9.625 10.6133 9.625 10.4219ZM12.25 3.3125C12.25 2.60156 11.6484 2 10.9375 2H9.625V0.578125C9.625 0.414062 9.46094 0.25 9.29688 0.25H8.20312C8.01172 0.25 7.875 0.414062 7.875 0.578125V2H4.375V0.578125C4.375 0.414062 4.21094 0.25 4.04688 0.25H2.95312C2.76172 0.25 2.625 0.414062 2.625 0.578125V2H1.3125C0.574219 2 0 2.60156 0 3.3125V12.9375C0 13.6758 0.574219 14.25 1.3125 14.25H10.9375C11.6484 14.25 12.25 13.6758 12.25 12.9375V3.3125ZM10.9375 12.7734C10.9375 12.8828 10.8555 12.9375 10.7734 12.9375H1.47656C1.36719 12.9375 1.3125 12.8828 1.3125 12.7734V4.625H10.9375V12.7734Z" fill="#37AB48"/>
</svg>
