<svg width="15" height="14" viewBox="0 0 14 15" fill="none" xmlns="http://www.w3.org/2000/svg">
<path d="M13.5898 10.1484L10.5273 8.83594C10.4453 8.80859 10.3633 8.78125 10.2539 8.78125C10.0625 8.78125 9.87109 8.89062 9.76172 9.02734L8.39453 10.6953C6.26172 9.68359 4.56641 7.98828 3.55469 5.85547L5.22266 4.48828C5.35938 4.37891 5.46875 4.1875 5.46875 3.96875C5.46875 3.88672 5.44141 3.80469 5.41406 3.72266L4.10156 0.660156C3.99219 0.414062 3.74609 0.25 3.47266 0.25C3.44531 0.25 3.39062 0.277344 3.33594 0.277344L0.492188 0.933594C0.191406 1.01562 0 1.26172 0 1.5625C0 8.58984 5.66016 14.25 12.6875 14.25C12.9883 14.25 13.2344 14.0586 13.3164 13.7578L13.9727 10.9141C13.9727 10.8594 13.9727 10.8047 13.9727 10.7773C13.9727 10.5039 13.8086 10.2578 13.5898 10.1484Z" fill="#37AB48"/>
</svg>
