<svg width="16" height="16" viewBox="0 0 16 16" fill="none" xmlns="http://www.w3.org/2000/svg">
<path d="M5.76 4.16C5.76 4.34987 5.7037 4.53548 5.59821 4.69335C5.49272 4.85122 5.34279 4.97426 5.16738 5.04692C4.99196 5.11958 4.79893 5.1386 4.61271 5.10155C4.42649 5.06451 4.25544 4.97308 4.12118 4.83882C3.98692 4.70456 3.89549 4.53351 3.85845 4.34729C3.8214 4.16107 3.84042 3.96804 3.91308 3.79262C3.98574 3.61721 4.10878 3.46727 4.26665 3.36179C4.42452 3.2563 4.61013 3.2 4.8 3.2C5.05461 3.2 5.29879 3.30114 5.47882 3.48118C5.65886 3.66121 5.76 3.90539 5.76 4.16ZM16 1.28V14.72C16 15.0595 15.8651 15.385 15.6251 15.6251C15.385 15.8651 15.0595 16 14.72 16H1.28C0.940523 16 0.61495 15.8651 0.374903 15.6251C0.134857 15.385 0 15.0595 0 14.72V1.28C0 0.940523 0.134857 0.61495 0.374903 0.374903C0.61495 0.134857 0.940523 0 1.28 0H14.72C15.0595 0 15.385 0.134857 15.6251 0.374903C15.8651 0.61495 16 0.940523 16 1.28ZM14.72 14.72V1.28H1.28V14.72H14.72ZM4.8 6.08C4.63026 6.08 4.46747 6.14743 4.34745 6.26745C4.22743 6.38748 4.16 6.55026 4.16 6.72V11.84C4.16 12.0097 4.22743 12.1725 4.34745 12.2925C4.46747 12.4126 4.63026 12.48 4.8 12.48C4.96974 12.48 5.13252 12.4126 5.25255 12.2925C5.37257 12.1725 5.44 12.0097 5.44 11.84V6.72C5.44 6.55026 5.37257 6.38748 5.25255 6.26745C5.13252 6.14743 4.96974 6.08 4.8 6.08ZM9.6 6.08C9.02385 6.07997 8.46093 6.25275 7.984 6.576C7.949 6.42243 7.85861 6.28716 7.73011 6.19608C7.60162 6.10499 7.44405 6.06448 7.28755 6.08231C7.13106 6.10014 6.98664 6.17505 6.88192 6.29271C6.77721 6.41036 6.71956 6.5625 6.72 6.72V11.84C6.72 12.0097 6.78743 12.1725 6.90745 12.2925C7.02747 12.4126 7.19026 12.48 7.36 12.48C7.52974 12.48 7.69252 12.4126 7.81255 12.2925C7.93257 12.1725 8 12.0097 8 11.84V8.96C8 8.53565 8.16857 8.12869 8.46863 7.82863C8.76869 7.52857 9.17565 7.36 9.6 7.36C10.0243 7.36 10.4313 7.52857 10.7314 7.82863C11.0314 8.12869 11.2 8.53565 11.2 8.96V11.84C11.2 12.0097 11.2674 12.1725 11.3875 12.2925C11.5075 12.4126 11.6703 12.48 11.84 12.48C12.0097 12.48 12.1725 12.4126 12.2925 12.2925C12.4126 12.1725 12.48 12.0097 12.48 11.84V8.96C12.48 8.19618 12.1766 7.46364 11.6365 6.92353C11.0964 6.38343 10.3638 6.08 9.6 6.08Z" fill="#37AB48"/>
</svg>
