<svg width="20" height="21" viewBox="0 0 20 21" fill="none" xmlns="http://www.w3.org/2000/svg">
<path d="M10 0.5C8.02219 0.5 6.08879 1.08649 4.4443 2.1853C2.79981 3.28412 1.51809 4.8459 0.761209 6.67317C0.00433284 8.50043 -0.193701 10.5111 0.192152 12.4509C0.578004 14.3907 1.53041 16.1725 2.92894 17.5711C4.32746 18.9696 6.10929 19.922 8.0491 20.3079C9.98891 20.6937 11.9996 20.4957 13.8268 19.7388C15.6541 18.9819 17.2159 17.7002 18.3147 16.0557C19.4135 14.4112 20 12.4778 20 10.5C20 9.18678 19.7413 7.88642 19.2388 6.67317C18.7363 5.45991 17.9997 4.35752 17.0711 3.42893C16.1425 2.50035 15.0401 1.76375 13.8268 1.2612C12.6136 0.758658 11.3132 0.5 10 0.5ZM13.18 15.652C13.1427 15.7454 13.0858 15.8298 13.0132 15.8994C12.9406 15.969 12.8539 16.0223 12.759 16.0556C12.6641 16.089 12.5631 16.1016 12.4629 16.0927C12.3627 16.0838 12.2656 16.0536 12.178 16.004L9.463 13.894L7.721 15.502C7.68057 15.5319 7.63328 15.5511 7.58348 15.5579C7.53369 15.5647 7.48297 15.5589 7.436 15.541L7.77 12.552L7.78 12.561L7.787 12.502C7.787 12.502 12.672 8.054 12.871 7.865C13.073 7.676 13.006 7.635 13.006 7.635C13.018 7.405 12.645 7.635 12.645 7.635L6.172 11.799L3.477 10.881C3.477 10.881 3.063 10.733 3.024 10.406C2.983 10.082 3.49 9.906 3.49 9.906L14.207 5.648C14.207 5.648 15.088 5.256 15.088 5.906L13.18 15.652Z" fill="#37AB48"/>
</svg>
