<svg width="21" height="15" viewBox="0 0 21 15" fill="none" xmlns="http://www.w3.org/2000/svg">
<path d="M20.1855 2.50537C19.9629 1.61475 19.2578 0.909668 18.4043 0.687012C16.8086 0.241699 10.5 0.241699 10.5 0.241699C10.5 0.241699 4.1543 0.241699 2.55859 0.687012C1.70508 0.909668 1 1.61475 0.777344 2.50537C0.332031 4.06396 0.332031 7.40381 0.332031 7.40381C0.332031 7.40381 0.332031 10.7065 0.777344 12.3022C1 13.1929 1.70508 13.8608 2.55859 14.0835C4.1543 14.4917 10.5 14.4917 10.5 14.4917C10.5 14.4917 16.8086 14.4917 18.4043 14.0835C19.2578 13.8608 19.9629 13.1929 20.1855 12.3022C20.6309 10.7065 20.6309 7.40381 20.6309 7.40381C20.6309 7.40381 20.6309 4.06396 20.1855 2.50537ZM8.42188 10.4097V4.39795L13.6914 7.40381L8.42188 10.4097Z" fill="#37AB48"/>
</svg>
