<svg width="40" height="40" viewBox="0 0 40 40" fill="none" xmlns="http://www.w3.org/2000/svg">
<circle cx="20" cy="20" r="19.4" fill="white" stroke="#37AB48" stroke-width="1.2"/>
<path d="M12.9242 27.34L28.3751 27.3325V24.0513C27.8778 24.0513 27.4009 23.8537 27.0493 23.5021C26.6977 23.1505 26.5001 22.6736 26.5001 22.1763C26.5001 21.679 26.6977 21.2021 27.0493 20.8504C27.4009 20.4988 27.8778 20.3013 28.3751 20.3013V17.02H12.6982" stroke="#37AB48" stroke-width="1.2" stroke-linecap="round" stroke-linejoin="round"/>
<path d="M28.375 17.0201L19.5766 12.3401C17.2216 12.4526 15.1159 13.6713 13.645 15.551C12.3109 17.2573 11.5 19.5082 11.5 21.9766C11.5 23.9613 12.025 25.8063 12.9241 27.3401M22.75 20.7701V20.7795M16.1875 20.7701V20.7795M19 23.5826V23.592" stroke="#37AB48" stroke-width="1.2" stroke-linecap="round" stroke-linejoin="round"/>
</svg>
