<svg width="40" height="40" viewBox="0 0 40 40" fill="none" xmlns="http://www.w3.org/2000/svg">
<circle cx="20" cy="20" r="19.4" fill="white" stroke="#37AB48" stroke-width="1.2"/>
<path d="M16 10H24M17 10V12.789C17 13.5788 16.7662 14.3509 16.328 15.008L15.672 15.992C15.2337 16.6494 14.9998 17.4219 15 18.212V28C15 28.5304 15.2107 29.0391 15.5858 29.4142C15.9609 29.7893 16.4696 30 17 30H23C23.5304 30 24.0391 29.7893 24.4142 29.4142C24.7893 29.0391 25 28.5304 25 28V18.211C25 17.4212 24.7662 16.6491 24.328 15.992L23.672 15.008C23.2337 14.3506 22.9998 13.5781 23 12.788V10" stroke="#37AB48" stroke-width="1.2" stroke-linecap="round" stroke-linejoin="round"/>
<path d="M15 23C15.7918 22.6684 16.6416 22.4977 17.5 22.4977C18.3584 22.4977 19.2082 22.6684 20 23C20.7917 23.3317 21.6416 23.5025 22.5 23.5025C23.3584 23.5025 24.2083 23.3317 25 23" stroke="#37AB48" stroke-width="1.2" stroke-linecap="round" stroke-linejoin="round"/>
</svg>
