<svg width="40" height="40" viewBox="0 0 40 40" fill="none" xmlns="http://www.w3.org/2000/svg">
<circle cx="20" cy="20" r="19.4" fill="white" stroke="#37AB48" stroke-width="1.2"/>
<path d="M18.375 10H22.125C22.5621 9.99978 22.9855 10.1523 23.3221 10.4311C23.6587 10.71 23.8873 11.0976 23.9684 11.5271C24.0495 11.9566 23.978 12.4009 23.7662 12.7833C23.5545 13.1657 23.2158 13.4621 22.8087 13.6213C22.96 14.23 23.405 14.6913 24.0862 15.3625L24.0987 15.375C24.5787 15.8475 25.1475 16.4075 25.645 17.1538C26.2676 18.0989 26.5635 19.222 26.4875 20.3512C26.4962 20.4412 26.5 20.5325 26.5 20.625V26.875C26.5 27.4235 26.3556 27.9624 26.0813 28.4375C25.807 28.9125 25.4125 29.307 24.9375 29.5813C24.4624 29.8555 23.9235 29.9999 23.375 29.9999C22.8264 29.9999 22.2876 29.8555 21.8125 29.5812C21.3377 29.8561 20.7986 30.0006 20.25 30C19.7014 30.0006 19.1623 29.8561 18.6875 29.5812C18.2124 29.8555 17.6736 29.9999 17.125 29.9999C16.5765 29.9999 16.0376 29.8555 15.5625 29.5813C15.0875 29.307 14.693 28.9125 14.4187 28.4375C14.1444 27.9624 14 27.4235 14 26.875V20.625C14 20.5325 14.0038 20.4412 14.0125 20.35C14.0044 20.2335 14.0002 20.1168 14 20C14 18.3375 14.7987 16.86 16.0375 15.8425C16.1787 15.6925 16.3175 15.55 16.4475 15.415L16.45 15.4138C17.1162 14.7263 17.5512 14.2575 17.6962 13.6238C17.2879 13.4658 16.9477 13.17 16.7347 12.7875C16.5216 12.4051 16.4491 11.9601 16.5297 11.5298C16.6103 11.0995 16.8389 10.7109 17.176 10.4315C17.513 10.1521 17.9372 9.99945 18.375 10ZM25.25 25V20.625C25.25 20.5562 25.2462 20.49 25.24 20.4237C25.2356 20.3852 25.2347 20.3462 25.2375 20.3075C25.3056 19.4226 25.0726 18.5407 24.5762 17.805C24.5067 17.7013 24.4342 17.5996 24.3587 17.5H16.1475C15.5053 18.2888 15.1888 19.2931 15.2625 20.3075C15.2657 20.3462 15.2653 20.3851 15.2612 20.4237C15.254 20.4906 15.2502 20.5578 15.25 20.625V25H25.25ZM15.25 26.25V26.875C15.2501 27.2281 15.3499 27.5741 15.5379 27.873C15.726 28.1719 15.9946 28.4116 16.3129 28.5646C16.6312 28.7175 16.9863 28.7775 17.3371 28.7375C17.688 28.6976 18.0205 28.5593 18.2962 28.3387C18.4072 28.2497 18.5452 28.2011 18.6875 28.2011C18.8298 28.2011 18.9678 28.2497 19.0787 28.3387C19.4 28.5962 19.8062 28.75 20.25 28.75C20.6937 28.75 21.1 28.5962 21.4212 28.3387C21.5322 28.2497 21.6702 28.2011 21.8125 28.2011C21.9548 28.2011 22.0928 28.2497 22.2037 28.3387C22.4795 28.5593 22.812 28.6976 23.1629 28.7375C23.5137 28.7775 23.8688 28.7175 24.1871 28.5646C24.5054 28.4116 24.774 28.1719 24.9621 27.873C25.1501 27.5741 25.2499 27.2281 25.25 26.875V26.25H15.25ZM21.5575 13.75H18.945C18.7487 14.84 18.0525 15.5575 17.395 16.2338L17.3812 16.25H23.2075L23.155 16.1988C22.4875 15.5425 21.7637 14.83 21.5575 13.75ZM18.375 12.5H22.125C22.2908 12.5 22.4497 12.4342 22.5669 12.3169C22.6842 12.1997 22.75 12.0408 22.75 11.875C22.75 11.7092 22.6842 11.5503 22.5669 11.4331C22.4497 11.3158 22.2908 11.25 22.125 11.25H18.375C18.2092 11.25 18.0503 11.3158 17.9331 11.4331C17.8158 11.5503 17.75 11.7092 17.75 11.875C17.75 12.0408 17.8158 12.1997 17.9331 12.3169C18.0503 12.4342 18.2092 12.5 18.375 12.5Z" fill="#37AB48"/>
</svg>
