<svg width="40" height="40" viewBox="0 0 40 40" fill="none" xmlns="http://www.w3.org/2000/svg">
<circle cx="20" cy="20" r="19.4" fill="white" stroke="#37AB48" stroke-width="1.2"/>
<path d="M15 19L19.08 29.35C19.1568 29.5304 19.285 29.6842 19.4486 29.7923C19.6122 29.9004 19.8039 29.9581 20 29.9581C20.1961 29.9581 20.3878 29.9004 20.5514 29.7923C20.715 29.6842 20.8432 29.5304 20.92 29.35L25 19M15 19H25M15 19C14.4696 19 13.9609 18.7893 13.5858 18.4142C13.2107 18.0391 13 17.5304 13 17C13 16.4696 13.2107 15.9609 13.5858 15.5858C13.9609 15.2107 14.4696 15 15 15C15 13.6739 15.5268 12.4021 16.4645 11.4645C17.4021 10.5268 18.6739 10 20 10C21.3261 10 22.5979 10.5268 23.5355 11.4645C24.4732 12.4021 25 13.6739 25 15C25.5304 15 26.0391 15.2107 26.4142 15.5858C26.7893 15.9609 27 16.4696 27 17C27 17.5304 26.7893 18.0391 26.4142 18.4142C26.0391 18.7893 25.5304 19 25 19" stroke="#37AB48" stroke-width="1.2" stroke-linecap="round" stroke-linejoin="round"/>
</svg>
