<svg width="40" height="40" viewBox="0 0 40 40" fill="none" xmlns="http://www.w3.org/2000/svg">
<circle cx="20" cy="20" r="19.4" fill="white" stroke="#37AB48" stroke-width="1.2"/>
<path d="M21.9 26H18.1C17.9409 26 17.7883 25.9368 17.6757 25.8243C17.5632 25.7117 17.5 25.5591 17.5 25.4V23.1C17.5 22.9409 17.4368 22.7883 17.3243 22.6757C17.2117 22.5632 17.0591 22.5 16.9 22.5H14.6C14.4409 22.5 14.2883 22.4368 14.1757 22.3243C14.0632 22.2117 14 22.0591 14 21.9V18.1C14 17.9409 14.0632 17.7883 14.1757 17.6757C14.2883 17.5632 14.4409 17.5 14.6 17.5H16.9C17.0591 17.5 17.2117 17.4368 17.3243 17.3243C17.4368 17.2117 17.5 17.0591 17.5 16.9V14.6C17.5 14.4409 17.5632 14.2883 17.6757 14.1757C17.7883 14.0632 17.9409 14 18.1 14H21.9C22.0591 14 22.2117 14.0632 22.3243 14.1757C22.4368 14.2883 22.5 14.4409 22.5 14.6V16.9C22.5 17.0591 22.5632 17.2117 22.6757 17.3243C22.7883 17.4368 22.9409 17.5 23.1 17.5H25.4C25.5591 17.5 25.7117 17.5632 25.8243 17.6757C25.9368 17.7883 26 17.9409 26 18.1V21.9C26 22.0591 25.9368 22.2117 25.8243 22.3243C25.7117 22.4368 25.5591 22.5 25.4 22.5H23.1C22.9409 22.5 22.7883 22.5632 22.6757 22.6757C22.5632 22.7883 22.5 22.9409 22.5 23.1V25.4C22.5 25.5591 22.4368 25.7117 22.3243 25.8243C22.2117 25.9368 22.0591 26 21.9 26Z" stroke="#37AB48" stroke-width="1.2"/>
<path d="M20 30C25.523 30 30 25.523 30 20C30 14.477 25.523 10 20 10C14.477 10 10 14.477 10 20C10 25.523 14.477 30 20 30Z" stroke="#37AB48" stroke-width="1.2" stroke-linecap="round" stroke-linejoin="round"/>
</svg>
