<svg width="40" height="40" viewBox="0 0 40 40" fill="none" xmlns="http://www.w3.org/2000/svg">
<circle cx="20" cy="20" r="19.4" fill="white" stroke="#37AB48" stroke-width="1.2"/>
<path d="M24.1424 17.5938C24.1633 17.4327 24.1233 17.2695 24.0306 17.1388C23.938 17.008 23.8002 16.92 23.6463 16.8933C23.4924 16.8666 23.3346 16.9035 23.2063 16.9959C23.0781 17.0884 22.9894 17.2293 22.9592 17.3887C22.8567 18.0298 22.5649 18.6215 22.1244 19.0817C21.6839 19.5419 21.1167 19.8476 20.5016 19.9563C20.3447 19.9839 20.2048 20.0754 20.1126 20.2106C20.0205 20.3457 19.9836 20.5134 20.0102 20.6769C20.0368 20.8403 20.1246 20.9861 20.2543 21.0821C20.3841 21.1781 20.5451 21.2164 20.702 21.1888C21.5631 21.0366 22.3573 20.6085 22.9739 19.9641C23.5905 19.3198 23.999 18.4912 24.1424 17.5938ZM14.6 10C14.4409 10 14.2883 10.0658 14.1757 10.1831C14.0632 10.3003 14 10.4592 14 10.625V17.5C14 19.0494 14.5525 20.5436 15.5503 21.6927C16.548 22.8418 17.92 23.5638 19.4 23.7188V28.75H17C16.8409 28.75 16.6883 28.8158 16.5757 28.9331C16.4632 29.0503 16.4 29.2092 16.4 29.375C16.4 29.5408 16.4632 29.6997 16.5757 29.8169C16.6883 29.9342 16.8409 30 17 30H23C23.1591 30 23.3117 29.9342 23.4243 29.8169C23.5368 29.6997 23.6 29.5408 23.6 29.375C23.6 29.2092 23.5368 29.0503 23.4243 28.9331C23.3117 28.8158 23.1591 28.75 23 28.75H20.6V23.7188C22.08 23.5638 23.452 22.8418 24.4497 21.6927C25.4475 20.5436 26 19.0494 26 17.5V10.625C26 10.4592 25.9368 10.3003 25.8243 10.1831C25.7117 10.0658 25.5591 10 25.4 10H14.6ZM15.2 14.375V11.25H24.8V14.375H15.2ZM15.2 15.625H24.8V17.5C24.8 18.8261 24.2943 20.0979 23.3941 21.0355C22.4939 21.9732 21.273 22.5 20 22.5C18.727 22.5 17.5061 21.9732 16.6059 21.0355C15.7057 20.0979 15.2 18.8261 15.2 17.5V15.625Z" fill="#37AB48"/>
</svg>
