<svg width="164" height="50" viewBox="0 0 164 50" fill="none" xmlns="http://www.w3.org/2000/svg">
<path fill-rule="evenodd" clip-rule="evenodd" d="M163.556 30.7418C163.556 33.3888 162.679 35.6188 160.923 37.4321C159.167 39.2449 156.937 40.1511 154.232 40.1511H137.973L137.952 40.1077L137.698 39.5775L135.369 34.7125H150.477C151.657 34.7125 152.649 34.4392 153.455 33.8842C154.376 33.252 154.837 32.3808 154.837 31.2801C154.837 28.7054 153.024 27.4173 149.397 27.4173H140.506C137.945 27.4173 135.7 26.6258 133.772 25.0435C131.844 23.46 130.881 21.4467 130.881 19.0004C130.881 16.2956 131.822 14.1001 133.707 12.4181C135.593 10.7343 138.074 9.89236 141.153 9.89236H161.571V15.0716H143.57C142.765 15.0716 141.952 15.4109 141.132 16.0864C140.311 16.763 139.902 17.5612 139.902 18.4825C139.902 19.518 140.297 20.3891 141.089 21.0941C141.88 21.7987 142.836 22.1516 143.959 22.1516H153.757C156.808 22.1516 159.204 22.9354 160.944 24.5036C162.686 26.0723 163.556 28.1503 163.556 30.7418ZM75.0206 40.1077H68.33V9.89236H75.0206V40.1077ZM64.6619 40.1077H49.9427C47.6696 40.1077 45.4819 39.5898 43.3817 38.5535C41.1074 37.4321 39.374 35.6468 38.1798 33.2017C36.9856 30.7554 36.3892 28.0642 36.3892 25.1295C36.3892 24.1643 36.4529 23.2287 36.5799 22.3242H44.8064H62.1243H64.6619V27.6761H44.8064C44.8064 28.6546 44.9356 29.5109 45.1944 30.2448C45.4532 30.9781 45.9277 31.7332 46.6047 32.5099C47.2802 33.2877 47.9925 33.8769 48.7272 34.28C49.4679 34.6831 50.3382 34.8855 51.3524 34.8855H64.6619V40.1077ZM36.172 9.89236L21.668 40.1942H14.1154L0 9.89236H8.24451L18.0433 32.8992L27.9275 9.89236H36.172ZM97.7488 9.89236L84.3253 24.7845L97.3173 40.1077H87.9511L76.4691 24.7408L88.3822 9.89236H97.7488ZM132.866 40.1077H134.376L119.873 9.80585H112.319L98.204 40.1077H106.449L116.247 17.1003L126.131 40.1077H132.316H132.866Z" fill="white"/>
<path fill-rule="evenodd" clip-rule="evenodd" d="M138.789 49.2733L135.384 42.1626H134.814H127.14L130.122 49.2733H138.789ZM40.5846 0.726746L37.1802 7.83746H36.6096H28.9356H28.9346L31.9175 0.726746H40.5846ZM39.2917 15.2448C40.4009 13.6778 41.7641 12.4688 43.3816 11.619C44.6186 10.9854 45.806 10.5395 46.9422 10.2804C48.0786 10.0216 49.3819 9.89236 50.848 9.89236H64.4889V15.2448H62.1242H51.8849H51.8316H51.7803H39.2917Z" fill="#37AB48"/>
</svg>
