<svg width="150" height="40" viewBox="0 0 150 40" fill="none" xmlns="http://www.w3.org/2000/svg">
<path d="M41.4152 0.149414V11.8646C41.4152 12.5065 41.2948 13.1083 41.0942 13.7101C40.8936 14.3119 40.5325 14.8736 40.0511 15.3149C39.5696 15.7963 38.9277 16.1975 38.1253 16.4784C37.3229 16.7592 36.36 16.9197 35.1564 16.9197C33.9929 16.9197 33.03 16.7592 32.2276 16.4784C31.4252 16.1975 30.7833 15.7963 30.3018 15.3149C29.8204 14.8335 29.4593 14.3119 29.2587 13.7101C29.0581 13.1083 28.9377 12.5065 28.9377 11.8646V0.149414H32.6689V11.5436C32.6689 12.2256 32.8695 12.7472 33.2306 13.1083C33.5917 13.4694 34.2336 13.67 35.1965 13.67C36.1193 13.67 36.8013 13.4694 37.1624 13.1083C37.5235 12.7472 37.7241 12.2256 37.7241 11.5436V0.149414H41.4152Z" fill="white"/>
<path d="M47.9136 5.80637V16.679H44.3831V0.149414H48.9568L54.373 11.5436V0.149414H57.9437V16.679H53.3299L47.9136 5.80637Z" fill="white"/>
<path d="M64.6846 0.149414H60.9534V16.679H64.6846V0.149414Z" fill="white"/>
<path d="M77.0019 16.679H71.6659L67.012 0.149414H70.8234L74.354 13.3089L77.8445 0.149414H81.6559L77.0019 16.679Z" fill="white"/>
<path d="M83.6213 16.679V0.149414H94.0125V3.43928H87.3525V6.48843H93.4909V9.7783H87.3525V13.3891H94.0125V16.679H83.6213Z" fill="white"/>
<path d="M139.549 16.679V0.149414H143.28V13.3891H149.82V16.679H139.549Z" fill="white"/>
<path d="M56.2898 34.8646C56.2898 35.5066 56.1694 36.1084 55.9287 36.7102C55.688 37.312 55.3269 37.8737 54.8454 38.3551C54.364 38.8366 53.682 39.2378 52.8795 39.5186C52.0771 39.7994 51.0741 39.9599 49.9106 39.9599C48.7472 39.9599 47.7441 39.7994 46.9417 39.5186C46.1393 39.2378 45.4573 38.8366 44.9758 38.3551C44.4543 37.8737 44.0932 37.3521 43.8926 36.7102C43.6519 36.1084 43.5315 35.5066 43.5315 34.8646V27.9639C43.5315 27.322 43.6519 26.7202 43.8926 26.1184C44.1333 25.5166 44.4944 24.9549 44.9758 24.4735C45.4573 23.992 46.1393 23.5908 46.9417 23.31C47.7441 23.0291 48.7472 22.8687 49.9106 22.8687C51.0741 22.8687 52.0771 23.0291 52.8795 23.31C53.682 23.5908 54.364 23.992 54.8454 24.4735C55.367 24.9549 55.7281 25.4765 55.9287 26.1184C56.1694 26.7202 56.2898 27.322 56.2898 27.9639V34.8646ZM52.5586 28.2849C52.5586 27.643 52.358 27.1214 51.9167 26.7603C51.4753 26.3992 50.8334 26.1986 49.8705 26.1986C48.9477 26.1986 48.2657 26.3992 47.8244 26.7603C47.4232 27.1214 47.1824 27.643 47.1824 28.2849V34.5437C47.1824 35.1856 47.3831 35.7072 47.8244 36.0682C48.2657 36.4293 48.9076 36.6299 49.8705 36.6299C50.7933 36.6299 51.4753 36.4293 51.9167 36.0682C52.3179 35.7072 52.5586 35.1856 52.5586 34.5437V28.2849Z" fill="white"/>
<path d="M70.413 35.7472C70.413 36.9107 70.0118 37.8736 69.2495 38.5958C68.4872 39.3179 67.2836 39.679 65.5985 39.679H58.5374V23.1494H65.077C66.8021 23.1494 68.0058 23.4704 68.7279 24.1123C69.4501 24.7542 69.8112 25.6369 69.8112 26.7602V28.4453C69.8112 29.0471 69.6908 29.5687 69.41 29.9699C69.1291 30.4112 68.6477 30.7723 68.0057 31.0531C68.6878 31.2136 69.2896 31.5747 69.7309 32.1364C70.2124 32.6981 70.413 33.34 70.413 34.1023V35.7472ZM66.08 27.3219C66.08 26.9608 65.9596 26.68 65.7189 26.4794C65.4782 26.2788 65.1171 26.1584 64.5955 26.1584H62.2685V29.9298H64.5554C65.0369 29.9298 65.4381 29.8094 65.6788 29.6088C65.9195 29.3681 66.0399 29.1273 66.0399 28.7663V27.3219H66.08ZM66.6818 34.2226C66.6818 33.7412 66.5614 33.4202 66.2806 33.1795C65.9997 32.9388 65.6387 32.8184 65.1171 32.8184H62.3087V36.67H64.5955C65.1572 36.67 65.6788 36.5897 66.08 36.3891C66.4812 36.1885 66.6818 35.8274 66.6818 35.2256V34.2226Z" fill="white"/>
<path d="M85.1765 34.8646C85.1765 35.5066 85.0561 36.1084 84.8154 36.7102C84.5747 37.312 84.2136 37.8737 83.7322 38.3551C83.2507 38.8366 82.5687 39.2378 81.7663 39.5186C80.9639 39.7994 79.9608 39.9599 78.7974 39.9599C77.6339 39.9599 76.6309 39.7994 75.8284 39.5186C75.026 39.2378 74.344 38.8366 73.8625 38.3551C73.341 37.8737 72.9799 37.3521 72.7793 36.7102C72.5386 36.1084 72.4182 35.5066 72.4182 34.8646V27.9639C72.4182 27.322 72.5386 26.7202 72.7793 26.1184C73.02 25.5166 73.3811 24.9549 73.8625 24.4735C74.344 23.992 75.026 23.5908 75.8284 23.31C76.6309 23.0291 77.6339 22.8687 78.7974 22.8687C79.9608 22.8687 80.9639 23.0291 81.7663 23.31C82.5687 23.5908 83.2507 23.992 83.7322 24.4735C84.2537 24.9549 84.6148 25.4765 84.8154 26.1184C85.0561 26.7202 85.1765 27.322 85.1765 27.9639V34.8646ZM81.4453 28.2849C81.4453 27.643 81.2447 27.1214 80.8034 26.7603C80.3621 26.3992 79.7201 26.1986 78.7572 26.1986C77.8345 26.1986 77.1524 26.3992 76.7111 26.7603C76.3099 27.1214 76.0692 27.643 76.0692 28.2849V34.5437C76.0692 35.1856 76.2698 35.7072 76.7111 36.0682C77.1524 36.4293 77.7943 36.6299 78.7572 36.6299C79.68 36.6299 80.3621 36.4293 80.8034 36.0682C81.2046 35.7072 81.4453 35.1856 81.4453 34.5437V28.2849Z" fill="white"/>
<path d="M94.2833 26.4393V39.679H90.5522V26.4393H86.1389V23.1494H98.7367V26.4393H94.2833Z" fill="white"/>
<path d="M127.955 0.149414H133.291L137.945 16.679H134.134L130.603 3.51952L127.112 16.679H123.301L127.955 0.149414Z" fill="white"/>
<path d="M122.377 12.1453C122.377 12.9477 122.297 13.6298 122.137 14.2717C121.976 14.8735 121.655 15.3951 121.214 15.7963C120.772 16.1975 120.131 16.5184 119.368 16.719C118.566 16.9196 117.563 16.9999 116.319 16.9999C115.356 16.9999 114.393 16.9196 113.471 16.719C112.508 16.5184 112.227 16.3981 111.625 16.1975V13.1082C112.387 13.3489 113.15 13.5094 113.952 13.6699C114.714 13.8304 115.557 13.9106 116.399 13.9106C116.881 13.9106 117.282 13.8705 117.563 13.8304C117.884 13.7903 118.084 13.6699 118.245 13.5495C118.405 13.3891 118.526 13.2286 118.566 12.9879C118.606 12.7873 118.646 12.5064 118.646 12.1453C118.646 11.7842 118.646 11.4633 118.606 11.2627C118.566 11.0621 118.486 10.8615 118.285 10.701C118.084 10.5405 117.844 10.4201 117.442 10.2998C117.081 10.1794 116.56 10.0591 115.878 9.89858C114.875 9.69798 114.072 9.45726 113.471 9.21653C112.869 8.97581 112.387 8.69497 112.066 8.29377C111.745 7.93269 111.545 7.45124 111.424 6.88956C111.304 6.32787 111.264 5.60571 111.264 4.72306C111.264 3.92065 111.344 3.19848 111.505 2.6368C111.665 2.07511 111.986 1.59367 112.387 1.23258C112.829 0.871502 113.39 0.590659 114.153 0.430178C114.875 0.269696 115.838 0.189453 116.961 0.189453C117.683 0.189453 118.486 0.229581 119.328 0.309822C120.171 0.390062 121.053 0.510423 121.976 0.711025V3.84041C121.013 3.67993 119.85 3.51944 119.168 3.4392C118.486 3.35896 117.763 3.31885 117.001 3.31885C116.6 3.31885 116.239 3.31885 115.998 3.35897C115.717 3.39909 115.517 3.47932 115.396 3.59968C115.236 3.72004 115.156 3.88053 115.075 4.08113C115.035 4.28173 114.995 4.52245 114.995 4.80329C114.995 5.2045 114.995 5.48535 115.035 5.72607C115.075 5.92667 115.156 6.12727 115.356 6.24763C115.517 6.36799 115.798 6.48835 116.159 6.60871C116.52 6.72907 117.041 6.84944 117.683 6.9698C118.807 7.21053 119.689 7.49137 120.291 7.77221C120.893 8.05305 121.374 8.37401 121.695 8.7351C122.016 9.09618 122.217 9.57762 122.257 10.0992C122.337 10.6609 122.377 11.3429 122.377 12.1453Z" fill="white"/>
<path d="M110.854 35.1454C110.854 35.9478 110.774 36.6298 110.613 37.2718C110.453 37.8736 110.132 38.3952 109.69 38.7964C109.249 39.1976 108.607 39.5185 107.845 39.7191C107.042 39.9197 106.039 40 104.796 40C103.833 40 102.87 39.9197 101.947 39.7191C100.984 39.5185 100.703 39.3982 100.102 39.1976V36.1083C100.864 36.349 101.626 36.5095 102.429 36.67C103.191 36.8304 104.033 36.8706 104.876 36.8706C105.357 36.8706 105.759 36.8305 106.039 36.7903C106.36 36.7502 106.561 36.6298 106.721 36.5095C106.882 36.349 107.002 36.1885 107.042 35.9478C107.083 35.7472 107.123 35.4664 107.123 35.1053C107.123 34.7442 107.123 34.4232 107.083 34.2226C107.042 34.022 106.962 33.8214 106.762 33.6609C106.561 33.5005 106.32 33.3801 105.919 33.2597C105.558 33.1394 105.036 33.019 104.354 32.8585C103.351 32.6579 102.549 32.4172 101.947 32.1765C101.345 31.9358 100.864 31.6549 100.543 31.2537C100.222 30.8926 100.021 30.4112 99.901 29.8495C99.7806 29.2878 99.7405 28.5657 99.7405 27.683C99.7405 26.8806 99.8207 26.1584 99.9812 25.5967C100.142 25.0351 100.463 24.5536 100.864 24.1925C101.305 23.8315 101.867 23.5506 102.629 23.3901C103.351 23.2296 104.314 23.1494 105.438 23.1494C106.16 23.1494 106.962 23.1895 107.805 23.2698C108.647 23.35 109.53 23.4704 110.453 23.671V26.8004C109.49 26.6399 108.326 26.4794 107.644 26.3992C106.962 26.3189 106.24 26.2788 105.478 26.2788C105.076 26.2788 104.715 26.2788 104.475 26.3189C104.194 26.359 103.993 26.4393 103.873 26.5596C103.712 26.68 103.632 26.8405 103.552 27.0411C103.512 27.2417 103.472 27.4824 103.472 27.7633C103.472 28.1645 103.472 28.4453 103.512 28.686C103.552 28.8866 103.632 29.0872 103.833 29.2076C103.993 29.3279 104.274 29.4483 104.635 29.5687C104.996 29.689 105.518 29.8094 106.16 29.9298C107.283 30.1705 108.166 30.4513 108.768 30.7322C109.369 31.013 109.851 31.334 110.172 31.695C110.493 32.0561 110.693 32.5376 110.733 33.0591C110.814 33.6609 110.854 34.343 110.854 35.1454Z" fill="white"/>
<path d="M104.485 5.72614C104.485 6.0471 104.365 6.32795 104.124 6.56867C103.884 6.80939 103.522 6.88963 103.001 6.88963H100.714V3.11832H103.001C103.522 3.11832 103.924 3.23867 104.124 3.43928C104.365 3.63988 104.485 3.92072 104.485 4.28181V5.72614ZM106.371 8.05312C107.013 7.77227 107.494 7.4112 107.775 6.96987C108.056 6.52855 108.176 6.00698 108.176 5.44529V3.76025C108.176 2.63688 107.815 1.75423 107.093 1.1123C106.371 0.470374 105.167 0.149414 103.442 0.149414H96.9026V16.7191H100.674V9.85853H103.482C103.964 9.85853 104.365 9.97889 104.646 10.2196C104.927 10.4603 105.047 10.7813 105.047 11.2627V16.7592H108.778V11.1825C108.778 10.4202 108.537 9.73818 108.096 9.17649C107.615 8.57469 107.053 8.2136 106.371 8.05312Z" fill="white"/>
<path d="M37.0723 28.7261C37.0723 29.0471 36.952 29.3279 36.7112 29.5687C36.4705 29.8094 36.1094 29.8896 35.5879 29.8896H33.301V26.1183H35.5879C36.1094 26.1183 36.5106 26.2387 36.7112 26.4393C36.952 26.6399 37.0723 26.9207 37.0723 27.2818V28.7261ZM38.9179 31.0531C39.5598 30.7723 40.0412 30.4112 40.3221 29.9699C40.6029 29.5286 40.7233 29.007 40.7233 28.4453V26.7602C40.7233 25.6369 40.3622 24.7542 39.64 24.1123C38.9179 23.4704 37.7143 23.1494 35.9891 23.1494H29.4495V39.7191H33.2208V32.8585H36.0292C36.5106 32.8585 36.9118 32.9789 37.1927 33.2196C37.4735 33.4603 37.5939 33.7813 37.5939 34.2627V39.7592H41.3251V34.1825C41.3251 33.4202 41.0844 32.7382 40.643 32.1765C40.2017 31.5747 39.64 31.2136 38.9179 31.0531Z" fill="white"/>
<rect x="0.0510254" width="23" height="23" rx="2" fill="white"/>
<path d="M22.051 22.8397L16.2299 17.1098C15.5875 16.4686 15.1459 15.6673 15.1459 15.6673C14.343 13.9443 15.1861 12.2613 15.1861 12.2613C15.708 11.0993 16.7116 10.0174 16.7116 10.0174C17.9561 8.49477 17.7956 7.41289 17.7956 7.41289C17.7554 6.57143 17.1934 6.17073 16.9926 6.05053C16.6313 5.85018 16.1496 5.77003 15.5474 5.77003C14.7445 5.77003 14.1423 5.93032 13.781 6.25087C13.4196 6.57143 13.2189 7.01219 13.2189 7.57317L13.1386 12.9826V16.8293C13.1386 17.3502 13.0583 17.8711 12.8576 18.392C12.6569 18.9129 12.3758 19.3537 11.9744 19.7544C11.5729 20.1551 11.0109 20.4756 10.3685 20.716C9.68606 20.9565 8.843 21.0767 7.8795 21.0767C6.91599 21.0767 6.07292 20.9565 5.39044 20.716C4.70796 20.4756 4.18606 20.1551 3.74446 19.7544C3.343 19.3537 3.06198 18.8728 2.86125 18.392C2.66052 17.8711 2.58022 17.3502 2.58022 16.8293V0H1.89774C0.894094 0 0.0510254 0.841466 0.0510254 1.84321V21.1568C0.0510254 22.1585 0.894094 23 1.89774 23H21.2481C21.5693 23 21.8102 22.9199 22.051 22.8397Z" fill="#60A4D7"/>
<path d="M21.2749 0H6.05103V16.9199C6.05103 17.4949 6.20878 17.9466 6.48486 18.2752C6.80039 18.6037 7.3131 18.7269 8.10191 18.7269C8.89071 18.7269 9.44287 18.5626 9.71895 18.2752C10.0345 17.9466 10.1528 17.4949 10.1528 16.9199V13.5524V7.47433C10.1528 6.89938 10.2711 6.3655 10.4683 5.83162C10.6655 5.29774 10.981 4.80493 11.4149 4.39425C11.8487 3.98357 12.4009 3.61396 13.1108 3.36755C13.8207 3.12115 14.6489 2.99795 15.6349 2.99795C16.6209 2.99795 17.4492 3.12115 18.1591 3.36755C18.8296 3.61396 19.4212 3.9425 19.8156 4.39425C20.2494 4.80493 20.5649 5.29774 20.7621 5.83162C20.8016 5.99589 20.8805 6.16016 20.9199 6.32443C20.9988 6.61191 20.9988 6.77618 20.9988 6.77618C20.9988 6.85831 20.9988 6.94045 20.9988 6.98152C20.9988 7.02259 20.9988 7.06365 20.9988 7.10472C20.9988 7.14579 20.9988 7.22792 20.9988 7.26899C20.9988 7.35113 20.9988 7.39219 20.9988 7.47433C20.9593 9.24024 20.0128 10.4723 20.0128 10.4723C19.7367 10.9651 18.3563 12.9363 18.3563 12.9363C17.4097 14.2505 18.3957 15.154 18.3957 15.154L23.0497 20V1.84805C23.0891 0.862423 22.2609 0 21.2749 0Z" fill="#60A4D7"/>
</svg>
