<svg width="159" height="40" viewBox="0 0 159 40" fill="none" xmlns="http://www.w3.org/2000/svg">
<path fill-rule="evenodd" clip-rule="evenodd" d="M16.4534 17.5934H13.4411L16.1145 5.77017H19.7803C22.3165 5.77017 23.6949 7.23586 23.694 9.43316C23.694 14.5838 21.0763 17.5934 16.4534 17.5934ZM23.6949 5.34058e-05H9.13281L0.819824 39.2666H8.96337L12.3136 23.5896H17.7508C26.0065 23.5896 31.8947 16.5785 31.8947 8.36249C31.8947 3.15557 29.1794 5.34058e-05 23.6949 5.34058e-05Z" fill="#0976DF"/>
<path fill-rule="evenodd" clip-rule="evenodd" d="M27.439 39.2666L33.6088 9.54573H40.9633L40.3428 13.1191C42.3165 10.7519 45.1022 8.75739 47.8658 8.98254C48.7385 9.05323 49.524 9.26397 49.524 9.26397L48.0573 16.1282C42.8834 15.8186 39.5454 17.3577 38.5385 22.2933L35.0751 39.2666H27.439Z" fill="#0976DF"/>
<path fill-rule="evenodd" clip-rule="evenodd" d="M62.8213 17.9877C61.9191 28.514 59.269 34.7354 55.5799 34.7354C53.6545 34.7354 52.6569 33.3845 52.9077 30.9374C54.1144 19.1709 56.471 13.9206 60.0026 13.964C61.8324 13.9865 63.059 15.2191 62.8213 17.9877ZM61.4121 8.75723C50.5388 8.75723 46.5266 16.438 45.4406 31.3314C44.9895 37.5198 47.96 40.0386 54.3961 39.9991C63.5553 39.9432 69.4092 34.341 70.4807 17.0295C70.8517 11.0355 66.9042 8.75723 61.4121 8.75723Z" fill="#0976DF"/>
<path fill-rule="evenodd" clip-rule="evenodd" d="M77.0466 5.34058e-05H85.0215L78.1752 32.5378H92.2294L90.7062 39.2666H68.6558L77.0466 5.34058e-05Z" fill="#0976DF"/>
<path fill-rule="evenodd" clip-rule="evenodd" d="M107.859 14.0768C109.776 13.9225 110.715 14.9823 110.679 17.2553C110.737 18.3819 110.172 20.9174 110.172 20.9174H102.535C103.509 16.5204 105.285 14.2396 107.859 14.0768ZM116.51 25.4489C117.243 22.8074 117.935 19.9873 117.887 16.973C117.83 13.5132 117.21 8.75746 109.213 8.75746C98.6224 8.75746 94.6207 16.0834 93.1291 31.3884C92.621 36.5957 95.3598 39.9421 102.085 39.9993C109.11 40.0586 113.674 36.418 115.326 29.1906H108.48C107.352 33.3267 105.355 34.6798 103.381 34.6798C101.611 34.6798 100.656 33.4436 100.764 31.2763C100.821 30.1488 100.811 28.6775 101.577 25.4489H116.51Z" fill="#0976DF"/>
<path fill-rule="evenodd" clip-rule="evenodd" d="M122.116 8.13735H129.832L123.323 39.2666H115.609L122.116 8.13735Z" fill="#0976DF"/>
<path fill-rule="evenodd" clip-rule="evenodd" d="M123.978 -2.71797e-05H131.693L130.226 6.39014H122.511L123.978 -2.71797e-05Z" fill="#F9B018"/>
<path fill-rule="evenodd" clip-rule="evenodd" d="M126.251 32.5787H133.967L132.539 39.2666H124.824L126.251 32.5787Z" fill="#F9B018"/>
<path fill-rule="evenodd" clip-rule="evenodd" d="M145.004 32.5787H152.718L151.292 39.2666H143.576L145.004 32.5787Z" fill="#F9B018"/>
<path d="M148.975 6.4465L142.059 39.2666H134.027L140.945 6.4465H131.861L133.295 5.34058e-05H158.819L157.523 6.4465H148.975Z" fill="#0976DF"/>
</svg>
