<svg width="135" height="40" viewBox="0 0 135 40" fill="none" xmlns="http://www.w3.org/2000/svg">
<path d="M66.0554 25.9056H60.807V29.6323H65.8732V31.234H60.807V35.0868H66.2185V36.6892H59.041V24.3018H66.0554V25.9056Z" fill="#04BC3F"/>
<path d="M71.7223 36.6929H70.1123V24.3003H71.7223V36.6929Z" fill="#04BC3F"/>
<path d="M79.9432 29.7549C81.0866 29.7549 81.7921 30.5363 81.8485 31.7735H77.7517C77.9682 30.4831 78.7102 29.7549 79.9432 29.7549ZM77.7166 32.8459H83.4487C83.4487 29.827 82.0683 28.3668 79.9081 28.3668C77.6606 28.3668 76.1055 30.0282 76.1055 32.5003C76.1055 34.7581 77.5154 36.8511 80.0533 36.8511C81.4304 36.8511 82.3222 36.5412 83.3035 35.888V34.3214C82.3595 34.9411 81.4304 35.3063 80.4527 35.3063C78.8943 35.3063 77.9682 34.4672 77.7166 32.8459Z" fill="#04BC3F"/>
<path d="M93.422 30.6697C92.4963 30.0355 91.8789 29.8482 91.1707 29.8482C89.6996 29.8482 88.6802 30.9789 88.6802 32.6308C88.6802 34.3199 89.7732 35.3376 91.4421 35.3376C92.1331 35.3376 92.7871 35.1554 93.6046 34.7909V36.3816C93.0592 36.6346 92.0244 36.8511 91.1707 36.8511C88.7366 36.8511 87.043 35.1736 87.043 32.7766C87.043 30.0741 88.5936 28.3668 91.0621 28.3668C92.0058 28.3668 92.6407 28.5848 93.422 28.9281V30.6697Z" fill="#04BC3F"/>
<path d="M100.452 28.5257H103.031V29.975H100.452V34.1625C100.452 35.1269 101.14 35.4003 101.615 35.4003C102.196 35.4003 102.794 35.1999 103.449 34.8003V36.3058C102.885 36.6149 102.013 36.8511 101.487 36.8511C99.7277 36.8511 98.8434 35.7619 98.8434 34.2886V29.975H97.4253V29.7949L100.452 26.8359V28.5257Z" fill="#04BC3F"/>
<path d="M109.526 28.5257V30.4161H109.562C110.378 28.969 111.161 28.3668 111.923 28.3668C112.577 28.3668 113.193 28.6766 113.868 29.3138L113.013 30.7317C112.523 30.2484 111.885 29.9116 111.507 29.9116C110.399 29.9116 109.526 31.0408 109.526 32.4347V36.6929H107.918V28.5257H109.526Z" fill="#04BC3F"/>
<path d="M119.837 36.6929H118.232V28.5257H119.837V36.6929Z" fill="#04BC3F"/>
<path d="M130.968 30.6697C130.039 30.0355 129.423 29.8482 128.714 29.8482C127.243 29.8482 126.226 30.9789 126.226 32.6308C126.226 34.3199 127.315 35.3376 128.987 35.3376C129.677 35.3376 130.33 35.1554 131.149 34.7909V36.3816C130.604 36.6346 129.569 36.8511 128.714 36.8511C126.281 36.8511 124.585 35.1736 124.585 32.7766C124.585 30.0741 126.135 28.3668 128.606 28.3668C129.552 28.3668 130.186 28.5848 130.968 28.9281V30.6697Z" fill="#04BC3F"/>
<path d="M119.898 25.5863C120.048 25.985 119.776 26.542 119.292 26.827C118.809 27.1113 118.293 27.0195 118.143 26.6214C117.993 26.2249 118.263 25.6701 118.748 25.3829C119.232 25.0956 119.747 25.1882 119.898 25.5863Z" fill="#04BC3F"/>
<path d="M52.6907 31.2666C52.5365 31.5567 52.3708 31.8454 52.1938 32.1322C52.3711 31.8454 52.5361 31.5563 52.6907 31.2666ZM33.7613 30.5718C33.852 30.2853 33.9543 29.9977 34.0679 29.7097H34.0665C33.9527 29.9977 33.8515 30.2853 33.7613 30.5718ZM50.7208 26.2739H48.0989C47.8204 26.2739 47.6995 26.3234 47.5864 26.4525C47.5408 26.502 47.521 26.553 47.5072 26.6537L46.0734 32.0819C45.7379 33.9839 43.4003 35.8844 40.3543 35.8844H36.1153L36.8511 33.0945H39.5727C39.8512 33.0945 40.0684 32.9939 40.2491 32.7898C40.3174 32.7154 40.404 32.5886 40.4167 32.461L41.5433 27.7195C41.8792 25.816 43.8908 23.7121 46.9376 23.7121H51.2767L50.7208 26.2739ZM52.5414 21.3784C49.4155 18.2524 42.8718 19.316 37.9974 23.9753C37.2331 24.7057 36.5564 25.4826 35.9701 26.2848H38.6611L38.0437 28.0439H34.8527C35.0135 27.7491 35.1865 27.456 35.3708 27.1652C34.8388 28.0021 34.4039 28.8572 34.0679 29.7097H37.8272L37.2274 31.4674H33.5148C32.8836 34.1589 33.3021 36.6638 34.8929 38.2546C37.9806 41.3426 44.5027 40.2578 49.3766 35.5965C50.2307 34.78 50.9762 33.9088 51.6126 33.0107H48.1605L48.6771 31.2523H52.6978C52.9919 30.6987 53.2446 30.1413 53.454 29.5865H49.0788L49.5633 27.8303H53.9759C54.5213 25.2814 54.0879 22.9255 52.5414 21.3784ZM53.4566 29.5804C53.5656 29.2902 53.6638 29.0008 53.7493 28.7129C53.6634 29.0004 53.566 29.2905 53.4566 29.5804ZM53.4566 29.5804C53.4559 29.5826 53.4548 29.5843 53.454 29.5865H53.4544C53.4552 29.5843 53.4559 29.5826 53.4566 29.5804ZM52.6989 31.2523H52.6978C52.6951 31.2571 52.6933 31.2618 52.6907 31.2666C52.6933 31.2618 52.6963 31.2571 52.6989 31.2523Z" fill="#04BC3F"/>
<path d="M86.676 1.07282C87.0974 2.18811 86.3393 3.74037 84.9832 4.53746C83.627 5.33835 82.1895 5.08495 81.7703 3.96955C81.3481 2.85419 82.1048 1.30387 83.4587 0.503233C84.8148 -0.295907 86.2538 -0.0424662 86.676 1.07282Z" fill="#04BC3F"/>
<path d="M81.9701 21.4314H86.4686V7.101H81.9701V21.4314ZM131.666 6.82542C129.927 6.82542 128.437 8.22412 127.104 11.204H127.041V7.08655H122.544V21.4146H127.041V15.2292C128.036 12.6008 129.091 11.0488 130.737 11.0488C131.447 11.0488 132.224 11.3592 133.405 12.1029L134.645 8.1298C133.342 7.16777 132.568 6.82542 131.666 6.82542ZM70.0452 12.658C70.2307 10.6714 71.3811 9.52059 73.1535 9.52059C74.8938 9.52059 76.0763 10.7028 76.2607 12.658H70.0452ZM72.8422 6.83871C68.427 6.83871 65.2876 9.95555 65.2876 14.3467C65.2876 18.762 68.5509 21.6902 73.588 21.6902C74.7071 21.6902 77.4074 21.6902 79.9812 19.7907V16.9902C77.8741 18.4901 76.4795 19.0082 74.6772 19.0082C71.847 19.0082 70.1079 17.5395 69.9526 15.0314H80.2291C80.4456 9.80199 77.0043 6.83871 72.8422 6.83871ZM98.9755 17.5154C98.0415 18.3535 97.2643 18.6957 96.299 18.6957C94.1829 18.6957 92.8458 16.9548 92.8458 14.3413C92.8458 11.4813 94.1829 9.83334 96.4543 9.83334C97.2643 9.83334 98.3207 10.2089 98.9755 10.6732V17.5154ZM98.9755 7.73202C97.7604 7.14373 96.5473 6.8349 95.2408 6.8349C91.1455 6.8349 88.3036 9.86469 88.3036 14.2487C88.3036 18.5401 91.1455 21.696 94.9914 21.696C96.517 21.696 97.6996 21.2924 98.9755 20.2733V21.4295H103.473V0.264372H98.9755V7.73202ZM110.123 12.658C110.308 10.6714 111.461 9.52059 113.231 9.52059C114.972 9.52059 116.154 10.7028 116.339 12.658H110.123ZM112.922 6.83871C108.505 6.83871 105.364 9.95555 105.364 14.3467C105.364 18.762 108.631 21.6902 113.666 21.6902C114.785 21.6902 117.486 21.6902 120.063 19.7907V16.9902C117.954 18.4901 116.556 19.0082 114.756 19.0082C111.927 19.0082 110.187 17.5395 110.031 15.0314H120.309C120.527 9.80199 117.084 6.83871 112.922 6.83871ZM41.7606 6.83871C39.992 6.83871 38.5343 7.58578 37.2302 9.23423H37.1691V0.264372H32.6738V21.4314H37.1691V12.3103C38.2256 10.7895 39.1245 10.1385 40.179 10.1385C41.5755 10.1385 42.5042 11.13 42.5042 13.2721V18.384C44.0291 17.7452 45.5554 17.3569 47.003 17.2328V12.3103C47.003 8.42751 44.3673 6.83871 41.7606 6.83871ZM5.84472 5.61615C5.84472 4.56155 7.06386 3.88282 8.97109 3.88282C10.7858 3.88282 12.6172 4.40628 15.6863 5.76952V1.64616C13.0224 0.497652 10.8784 0.000102997 8.50131 0.000102997C3.58035 0.000102997 0.418945 2.42142 0.418945 6.07835C0.418945 13.664 11.2223 12.3953 11.2223 15.8635C11.2223 17.1028 10.1273 17.815 8.09417 17.815C5.7502 17.815 3.89122 17.1028 0.855513 15.0885V19.6463C2.96063 20.734 4.7903 21.696 8.50131 21.696C13.2369 21.696 16.6481 19.3355 16.6481 15.2774C16.6481 7.90409 5.84472 8.80484 5.84472 5.61615ZM22.4919 14.271C22.4919 11.7628 24.231 10.1422 26.9318 10.1422C28.0492 10.1422 29.4143 10.4862 30.5945 11.1114V7.76147C29.1053 7.2067 27.2408 6.8349 25.7812 6.8349C21.0639 6.8349 17.6841 9.9261 17.6841 14.3005C17.6841 18.7601 20.94 21.6902 25.9698 21.6902C27.4887 21.6902 29.0111 21.3777 30.8111 20.7228V17.4895C28.8262 18.2313 27.8641 18.4811 26.7764 18.4811C24.2013 18.4811 22.4919 16.8068 22.4919 14.271ZM58.2915 6.8349C56.4583 6.8349 55.0596 7.51378 53.6277 9.15435V7.101H49.1307C49.1307 7.101 49.1307 13.345 49.1307 17.2489C50.896 17.4374 52.4541 18.0849 53.6277 19.2112C53.6277 16.5292 53.6277 12.1955 53.6277 12.1955C54.8099 10.4254 55.6498 9.83334 56.767 9.83334C58.0437 9.83334 59.009 10.6732 59.009 12.693V21.4314H63.5063V12.3212C63.5063 8.10207 60.5279 6.8349 58.2915 6.8349Z" fill="#04BC3F"/>
<path d="M133.231 26.5551H132.775V27.7004H132.587V26.5551H132.132V26.3857H133.231V26.5551Z" fill="#04BC3F"/>
<path d="M134.631 27.7004H134.442V26.6769H134.438L134.033 27.1858H134.002L133.597 26.6769H133.594V27.7004H133.405V26.3857H133.582L134.017 26.9255L134.455 26.3857H134.631V27.7004Z" fill="#04BC3F"/>
</svg>
