<svg width="220" height="40" viewBox="0 0 220 40" fill="none" xmlns="http://www.w3.org/2000/svg">
<path d="M50.1461 25.9126H56.9344L59.7447 10.4746H52.9928L50.1461 25.9126Z" fill="white"/>
<path d="M81.4234 18.1751C80.7299 21.9707 79.0146 23.2116 74.1606 23.2116H68.9051L70.7664 13.1751H76.0219C80.8394 13.1751 82.1168 14.416 81.4234 18.1751ZM77.7007 10.4744H64.7445L61.8978 25.9123H75C78.1387 25.9123 80.5475 25.7663 83.3212 24.5619C86.2409 23.2846 87.8832 21.2773 88.3942 18.4671C89.4161 12.9926 86.0219 10.4744 77.7007 10.4744Z" fill="white"/>
<path d="M92.1168 18.4671C91.6059 21.2773 92.5183 23.2846 95 24.5619C97.2993 25.7663 99.6716 25.9123 102.81 25.9123H113.102L113.577 23.2116H104.635C100.292 23.2116 98.6497 22.2262 99.1606 19.416H114.27L114.745 16.7517H99.6716C100.329 14.3065 102.518 13.1751 106.46 13.1751H115.401L115.912 10.4744H105.803C97.4453 10.4744 93.1387 12.9926 92.1168 18.4671Z" fill="white"/>
<path d="M138.686 18.1752C138.029 21.6788 135.693 23.4307 131.204 23.5402C126.752 23.3942 125.146 21.6788 125.803 18.0657C126.423 14.6715 128.832 12.9562 133.175 12.8102C137.628 12.9562 139.343 14.6715 138.686 18.1752ZM134.197 10.146H133.102C124.416 10.146 119.708 12.7007 118.759 18.0292C117.737 23.6496 121.277 26.2044 130.183 26.2044H131.277C140.11 26.2044 144.708 23.6496 145.73 18.1752C146.715 12.7007 143.029 10.146 134.197 10.146Z" fill="white"/>
<path d="M157.993 17.9196C157.299 21.7153 155.985 22.9926 150.292 22.9926H145.949L145.401 25.9488H151.642C156.058 25.9488 158.978 25.7298 161.788 24.124C163.942 22.8831 165 21.1678 165.438 18.7955L167.153 10.5474H159.525L157.993 17.9196Z" fill="white"/>
<path d="M169.343 18.4671C168.832 21.2773 169.744 23.2846 172.226 24.5619C174.526 25.7663 176.898 25.9123 180.036 25.9123H190.328L190.839 23.2116H181.898C177.555 23.2116 175.949 22.2262 176.423 19.416H191.533L192.044 16.7517H176.971C177.628 14.3065 179.817 13.1751 183.796 13.1751H192.664L193.175 10.4744H183.066C174.671 10.4744 170.365 12.9926 169.343 18.4671Z" fill="white"/>
<path d="M195.511 10.4744L195.037 13.1751H203.394L201.059 25.9123H207.774L210.11 13.1751H218.54L219.051 10.4744H195.511Z" fill="white"/>
<path d="M215.985 23.9416V23.2482H216.46C216.715 23.2482 216.971 23.2846 216.971 23.5766C216.971 23.9416 216.715 23.9416 216.423 23.9416H215.985ZM217.336 23.5766C217.336 23.1387 217.08 22.9197 216.533 22.9197H215.657V25.219H216.022V24.2335H216.423L217.044 25.219H217.445L216.788 24.2335C217.08 24.1606 217.336 23.9781 217.336 23.5766Z" fill="white"/>
<path d="M216.423 25.73C215.511 25.73 214.817 25.0365 214.817 24.0511C214.817 23.1022 215.511 22.4088 216.423 22.4088C217.336 22.4088 218.029 23.1022 218.029 24.0511C218.029 25.0365 217.299 25.73 216.423 25.73ZM216.423 22.0803C215.328 22.0803 214.416 22.9197 214.416 24.0511C214.416 25.219 215.328 26.0584 216.423 26.0584C217.518 26.0584 218.431 25.219 218.431 24.0511C218.431 22.9197 217.482 22.0803 216.423 22.0803Z" fill="white"/>
<path d="M38.6131 4.56204C38.1022 4.56204 37.4817 4.23357 37.2263 3.79562C36.9708 3.35766 37.1533 3.02919 37.6642 3.02919C38.1752 3.02919 38.7956 3.35766 39.0511 3.79562C39.3066 4.23357 39.1241 4.56204 38.6131 4.56204ZM31.7518 8.61314C31.2044 8.61314 30.5109 8.24817 30.219 7.81022C29.927 7.33576 30.146 6.9708 30.7299 6.9708C31.2774 6.9708 31.9708 7.33576 32.2628 7.81022C32.5182 8.21168 32.2993 8.61314 31.7518 8.61314ZM28.1752 4.37956C27.8832 3.94161 28.1022 3.54015 28.6861 3.54015C29.2336 3.54015 29.927 3.90511 30.219 4.37956C30.5109 4.85401 30.292 5.21897 29.708 5.21897C29.1606 5.18248 28.4672 4.81752 28.1752 4.37956ZM22.9562 19.1606C22.2993 19.1606 21.5328 18.7591 21.2044 18.2117C20.8759 17.6642 21.1314 17.2263 21.7883 17.2263C22.4453 17.2263 23.2117 17.6277 23.5401 18.1752C23.8686 18.7226 23.6131 19.1606 22.9562 19.1606ZM19.1971 14.7445C18.8686 14.2336 19.1241 13.7591 19.781 13.7591C20.438 13.7591 21.2044 14.1606 21.5328 14.708C21.8613 15.2555 21.6058 15.6934 20.9489 15.6934C20.3285 15.7299 19.5255 15.292 19.1971 14.7445ZM19.4161 22.4088C18.6496 22.4088 17.7372 21.8978 17.3358 21.2774C16.9343 20.6569 17.2628 20.1095 18.0292 20.1095C18.7956 20.1095 19.708 20.6204 20.1095 21.2409C20.4745 21.8978 20.1825 22.4088 19.4161 22.4088ZM19.2701 27.9927C19.708 28.6861 19.3431 29.2336 18.5401 29.2701C17.7007 29.2701 16.6788 28.7226 16.2774 28.0292C15.8394 27.3358 16.2044 26.7518 17.0073 26.7518C17.8102 26.7518 18.8321 27.2993 19.2701 27.9927ZM18.9781 34.7445C19.4526 35.5474 19.0876 36.1679 18.1387 36.2044C17.1898 36.2044 16.0219 35.5839 15.5474 34.8175C15.073 34.0146 15.438 33.3942 16.3869 33.3577C17.3358 33.3577 18.5036 33.9781 18.9781 34.7445ZM13.6861 31.4599C13.2117 30.6569 13.5766 30.0365 14.5255 30C15.4745 30 16.6423 30.6204 17.1168 31.3869C17.5912 32.1533 17.2263 32.8102 16.2774 32.8102C15.3285 32.8467 14.1971 32.2263 13.6861 31.4599ZM11.8248 28.1022C11.3504 27.2993 11.7153 26.6788 12.6642 26.6423C13.6131 26.6423 14.781 27.2628 15.2555 28.0292C15.7299 28.7956 15.365 29.4525 14.4161 29.489C13.4672 29.5255 12.2993 28.8686 11.8248 28.1022ZM10 24.7445C9.52555 23.9416 9.89051 23.3212 10.8394 23.2847C11.7883 23.2847 12.9562 23.9051 13.4307 24.6715C13.9051 25.438 13.5401 26.0949 12.5912 26.0949C11.6058 26.1679 10.4745 25.5474 10 24.7445ZM8.10219 21.4234C7.62774 20.6569 7.9927 20 8.9416 20C9.89051 20 11.0584 20.6204 11.5328 21.3869C12.0073 22.1898 11.6423 22.8102 10.6934 22.8467C9.74452 22.8102 8.57664 22.1898 8.10219 21.4234ZM6.27737 18.0657C5.80292 17.2993 6.16788 16.6423 7.11679 16.6423C8.06569 16.6423 9.23358 17.2628 9.70803 18.0292C10.1825 18.8321 9.81752 19.4526 8.86861 19.489C7.88321 19.489 6.75182 18.8321 6.27737 18.0657ZM4.37956 14.708C3.90511 13.9416 4.27007 13.2847 5.21898 13.2482C6.16788 13.2482 7.29927 13.8686 7.81022 14.635C8.28467 15.4015 7.91971 16.0584 6.9708 16.0584C6.0219 16.1314 4.85401 15.5109 4.37956 14.708ZM2.55474 11.3504C2.08029 10.5474 2.44526 9.92701 3.39416 9.89051C4.34306 9.89051 5.51095 10.5109 5.9854 11.2774C6.45985 12.0803 6.09489 12.7007 5.14599 12.7007C4.16058 12.7737 3.0292 12.1533 2.55474 11.3504ZM3.24817 4.52554C2.81022 3.83211 3.17518 3.28467 3.9781 3.24817C4.81752 3.24817 5.83942 3.79562 6.24088 4.48905C6.67883 5.18248 6.35036 5.72992 5.51095 5.76642C4.70803 5.76642 3.64963 5.21898 3.24817 4.52554ZM8.10219 7.84671C8.54014 8.54014 8.17518 9.12409 7.37226 9.12409C6.53285 9.12409 5.51095 8.57664 5.10949 7.88321C4.67153 7.18978 5.0365 6.60584 5.83942 6.60584C6.67883 6.60584 7.66423 7.15328 8.10219 7.84671ZM8.72263 3.32117C9.48905 3.32117 10.4015 3.79562 10.8029 4.45256C11.2044 5.073 10.8759 5.62044 10.1095 5.62044C9.34306 5.62044 8.43066 5.10948 8.0292 4.48905C7.66423 3.83211 7.9562 3.32117 8.72263 3.32117ZM12.6277 7.81022C13.0292 8.43065 12.7007 8.9781 11.9343 8.9781C11.1679 8.9781 10.2555 8.50365 9.85401 7.84671C9.45255 7.22628 9.78102 6.67883 10.5474 6.67883C11.3139 6.67883 12.2628 7.15328 12.6277 7.81022ZM14.5255 11.1679C14.927 11.7883 14.5985 12.3358 13.8321 12.3358C13.0657 12.3358 12.1533 11.8248 11.7518 11.2044C11.3504 10.5839 11.6788 10.0365 12.4453 10.0365C13.2117 10.0365 14.1241 10.5474 14.5255 11.1679ZM13.8686 3.43065C14.5255 3.43065 15.292 3.83212 15.6204 4.37956C15.9489 4.92701 15.6934 5.36497 15.0365 5.36497C14.3796 5.36497 13.6131 4.96351 13.2847 4.41606C12.9562 3.86861 13.2117 3.43065 13.8686 3.43065ZM17.5547 7.81022C17.8832 8.35766 17.6277 8.79562 16.9708 8.79562C16.3139 8.79562 15.5474 8.39416 15.219 7.84671C14.8905 7.29927 15.146 6.86131 15.8029 6.86131C16.4599 6.86131 17.2263 7.29927 17.5547 7.81022ZM15.4745 17.9197C15.073 17.2993 15.4015 16.7518 16.1679 16.7518C16.9343 16.7518 17.8467 17.2628 18.2482 17.8832C18.6131 18.5036 18.3212 19.0146 17.5547 19.0511C16.7883 19.0511 15.8759 18.5766 15.4745 17.9197ZM15.146 23.3942C15.9854 23.3942 17.0073 23.9416 17.4088 24.635C17.8467 25.3285 17.5182 25.9124 16.6788 25.9124C15.8394 25.9124 14.8175 25.365 14.4161 24.6715C13.9781 23.9781 14.3066 23.4307 15.146 23.3942ZM13.2847 20.0365C14.1241 20.0365 15.146 20.5839 15.5474 21.2774C15.9854 21.9708 15.6204 22.5182 14.8175 22.5547C13.9781 22.5547 12.9562 22.0073 12.5547 21.3139C12.1168 20.6204 12.4453 20.073 13.2847 20.0365ZM14.2701 13.3942C15.0365 13.3942 15.9489 13.9051 16.3504 14.5255C16.7518 15.146 16.4234 15.6569 15.6569 15.6934C14.8905 15.6934 13.9781 15.219 13.5766 14.562C13.2117 13.9416 13.5401 13.4307 14.2701 13.3942ZM11.4234 16.6788C12.2628 16.6788 13.2847 17.2263 13.6861 17.9197C14.1241 18.6131 13.7591 19.1606 12.9562 19.1971C12.1168 19.1971 11.0949 18.6496 10.6934 17.9562C10.2555 17.2628 10.5839 16.6788 11.4234 16.6788ZM6.9708 11.2409C6.53285 10.5474 6.89781 9.9635 7.70073 9.9635C8.54014 9.9635 9.56204 10.511 9.9635 11.2044C10.4015 11.8978 10.073 12.4818 9.23358 12.4818C8.39416 12.4818 7.37226 11.9343 6.9708 11.2409ZM9.56204 13.3212C10.4015 13.3212 11.4234 13.8686 11.8248 14.562C12.2628 15.2555 11.9343 15.8029 11.0949 15.8394C10.2555 15.8394 9.23358 15.292 8.83212 14.5985C8.39416 13.9051 8.72263 13.3212 9.56204 13.3212ZM19.562 11.2774C19.8905 11.8248 19.635 12.2628 18.9781 12.2628C18.3212 12.2628 17.5547 11.8613 17.2263 11.3139C16.8978 10.7664 17.1533 10.3285 17.8102 10.3285C18.4672 10.3285 19.2336 10.7299 19.562 11.2774ZM19.781 3.43065C20.4015 3.43065 21.1679 3.83211 21.4963 4.34306C21.8248 4.85401 21.5693 5.29197 20.9489 5.29197C20.3285 5.29197 19.562 4.89051 19.2336 4.37956C18.9051 3.86861 19.1606 3.43065 19.781 3.43065ZM36.0584 0.145983C36.5693 0.145983 37.1898 0.474452 37.4453 0.912409C37.7007 1.35036 37.5182 1.67883 37.0073 1.67883C36.4963 1.67883 35.8759 1.35036 35.6204 0.912409C35.365 0.510949 35.5474 0.145983 36.0584 0.145983H27.0073C27.4817 0.255472 27.9197 0.547445 28.1752 0.912409C28.4672 1.38686 28.2482 1.75182 27.6642 1.75182C27.1168 1.75182 26.4234 1.38686 26.1314 0.912409C25.9124 0.547445 26.0219 0.218974 26.3504 0.109485H18.3942C18.8686 0.25547 19.3066 0.583944 19.562 0.948907C19.8905 1.45986 19.635 1.89781 19.0146 1.89781C18.3942 1.89781 17.6277 1.49635 17.2993 0.985406C17.0803 0.620442 17.1533 0.25547 17.4453 0.109485H12.6277C13.0292 0.291966 13.3942 0.547443 13.6131 0.87591C13.9416 1.42336 13.6861 1.86132 13.0292 1.86132C12.3723 1.86132 11.6058 1.45985 11.2774 0.912409C11.0584 0.583942 11.0949 0.25547 11.3139 0.109485H7.77372C8.24817 0.291966 8.72263 0.65693 8.9416 1.02189C9.34306 1.64233 9.0146 2.18978 8.24817 2.18978C7.48175 2.18978 6.56934 1.67883 6.16788 1.05839C5.91241 0.656932 5.9489 0.291966 6.20438 0.109485H3.32117L3.28467 0.145983C3.72263 0.364961 4.12409 0.693428 4.34307 1.05839C4.78102 1.75182 4.41606 2.33576 3.61314 2.33576C3.17518 2.33576 2.66423 2.18978 2.22628 1.9343C1.93431 2.51824 1.67883 3.13868 1.45985 3.79562C1.78832 4.0146 2.0438 4.27007 2.22628 4.56204C2.70073 5.32847 2.33577 5.9854 1.38686 5.9854C1.20438 5.9854 1.0219 5.94891 0.802919 5.91241C0.729927 6.20438 0.656934 6.49635 0.583942 6.82482C0.766423 6.64234 1.05839 6.49635 1.45985 6.49635C2.40876 6.49635 3.57664 7.11679 4.05109 7.88321C4.52555 8.64964 4.16058 9.30657 3.21168 9.34307C2.26277 9.34307 1.09489 8.72262 0.620438 7.9562C0.547445 7.81021 0.474452 7.70072 0.437956 7.59124C0.29197 8.35766 0.182481 9.16058 0.109489 9.9635C0.839416 10.219 1.53285 10.7299 1.89781 11.3139C2.44525 12.1898 2.0073 12.9197 0.948905 12.9197C0.656934 12.9197 0.328467 12.8832 0 12.7737C0 12.9562 0 13.1022 0 13.2847C0.182482 13.1387 0.474452 13.0657 0.802919 13.0657C1.86131 13.0657 3.17518 13.7591 3.72263 14.635C4.27007 15.511 3.83212 16.2409 2.77372 16.2409C2.0438 16.2409 1.20438 15.9124 0.583942 15.438C0.583942 15.7299 0.437956 15.9489 0.218978 16.1314C0.218978 16.2774 0.255474 16.3869 0.255474 16.5328C0.69343 16.6788 1.13139 16.9343 1.49635 17.2263C1.53285 16.7518 1.9708 16.4234 2.66423 16.3869C3.72263 16.3869 5.0365 17.0803 5.58394 17.9562C6.13139 18.8321 5.69343 19.562 4.63504 19.5985C3.90511 19.5985 3.06569 19.2701 2.44525 18.7956C2.44525 19.2701 2.11679 19.635 1.49635 19.708C2.15328 19.8175 2.81022 20.146 3.32117 20.5839C3.35766 20.1095 3.79562 19.7445 4.48905 19.7445C5.54744 19.7445 6.86131 20.438 7.40876 21.3139C7.9562 22.1898 7.51825 22.9197 6.45985 22.9197C5.72993 22.9197 4.89051 22.5912 4.27007 22.1168C4.27007 22.5912 3.94161 22.9562 3.35766 23.0657C4.0146 23.1752 4.67153 23.5037 5.21898 23.9416C5.25547 23.4307 5.65693 23.1022 6.38686 23.1022C7.44525 23.1022 8.75912 23.7956 9.30657 24.6715C9.85401 25.5474 9.41606 26.2774 8.35766 26.2774C7.62774 26.2774 6.78832 25.9489 6.16788 25.4744C6.16788 25.9489 5.83942 26.3139 5.21898 26.4234C5.87591 26.5328 6.53285 26.8613 7.0438 27.2993C7.08029 26.7883 7.48175 26.4599 8.24817 26.4234C9.30657 26.4234 10.6204 27.1168 11.1679 27.9927C11.7153 28.8686 11.2774 29.5985 10.219 29.5985C9.48905 29.5985 8.64963 29.2701 8.0292 28.7956C8.0292 29.2701 7.70073 29.635 7.11679 29.7445C7.77372 29.854 8.43066 30.1825 8.9781 30.6204C8.9781 30.1095 9.41606 29.7445 10.146 29.7445C11.2044 29.7445 12.5182 30.4379 13.0657 31.3139C13.6131 32.1898 13.1752 32.9197 12.1168 32.9197C11.3869 32.9197 10.5474 32.5912 9.92701 32.1168C9.92701 32.5182 9.74452 32.8102 9.37956 32.9927C9.85401 33.3942 10.3285 33.7591 10.8394 34.1241C10.7664 33.5036 11.2044 33.1022 12.0073 33.0657C13.0657 33.0657 14.3796 33.7591 14.927 34.635C15.438 35.4744 15.073 36.1679 14.1606 36.2409C15.146 36.7883 16.1679 37.2993 17.2628 37.7737C17.0073 37.1168 17.3723 36.5693 18.2117 36.5693C19.1606 36.5693 20.3285 37.1898 20.8029 37.9562C21.0949 38.4307 21.0584 38.8321 20.8029 39.1241C21.7883 39.4526 22.7737 39.7445 23.8321 40L23.9051 39.9635C21.0584 38.7956 19.3796 35.9124 19.1606 32.2263C18.6861 32.0073 18.2847 31.6788 18.0292 31.2774C17.5912 30.5839 17.9562 30 18.7591 30C18.9051 30 19.0146 30 19.1606 30.0365C19.3066 28.5766 19.635 27.0073 20.146 25.4015C19.708 25.1825 19.3066 24.8905 19.0876 24.5255C18.6861 23.9051 19.0146 23.3577 19.781 23.3577C20.1095 23.3577 20.5109 23.4672 20.8394 23.6131C21.6788 21.6423 22.8102 19.635 24.2701 17.6277C30.8029 8.68613 41.4599 2.22628 51.0584 0H36.0584V0.145983Z" fill="#00AAE7"/>
<path d="M45.1095 6.45996L34.8906 19.8906L30.657 10.949C30.0365 11.4965 29.4161 12.0804 28.8322 12.6643L28.8687 12.7008C29.1971 13.2118 28.9417 13.6497 28.3212 13.6497C28.1752 13.6497 28.0292 13.6132 27.8833 13.5767C27.5548 13.9417 27.2263 14.2702 26.8979 14.6351C27.0438 14.7446 27.1898 14.8906 27.2628 15.0366C27.5913 15.5476 27.3358 15.9855 26.7154 15.9855C26.4599 15.9855 26.1679 15.9125 25.9125 15.803C25.8395 15.876 25.7665 15.9855 25.6935 16.0585L33.6132 31.0585L52.5548 6.38696H45.1095V6.45996Z" fill="white"/>
<path d="M23.3942 7.73729C23.0657 7.22634 22.2993 6.78839 21.6789 6.82488C21.0584 6.82488 20.803 7.26283 21.1314 7.77378C21.4599 8.28473 22.2263 8.72268 22.8468 8.68619C23.4672 8.68619 23.7227 8.24824 23.3942 7.73729Z" fill="white"/>
<path d="M25.7299 8.68619C26.3504 8.68619 26.6058 8.24824 26.2774 7.73729C25.9489 7.22634 25.1825 6.78839 24.562 6.82488C23.9416 6.82488 23.6861 7.26283 24.0146 7.77378C24.3431 8.28473 25.1095 8.72268 25.7299 8.68619Z" fill="white"/>
<path d="M24.635 10.1824C24.3066 9.67141 23.5402 9.23345 22.9197 9.26995C22.2993 9.26995 22.0438 9.70791 22.3723 10.2189C22.7007 10.7298 23.4672 11.1678 24.0876 11.1313C24.708 11.1313 24.9635 10.7298 24.635 10.1824Z" fill="white"/>
<path d="M25.8394 9.30664C25.219 9.30664 24.9635 9.7446 25.2919 10.2555C25.6204 10.7665 26.3868 11.2045 27.0073 11.168C27.6277 11.168 27.8832 10.73 27.5547 10.219C27.2263 9.7081 26.4598 9.30664 25.8394 9.30664Z" fill="white"/>
<path d="M28.1751 10.2555C28.5036 10.7664 29.27 11.2044 29.8905 11.1679C30.5109 11.1679 30.7664 10.7299 30.4379 10.219C30.1094 9.70803 29.343 9.27008 28.7226 9.30657C28.1021 9.30657 27.8467 9.74453 28.1751 10.2555Z" fill="white"/>
<path d="M25.9489 12.6643C25.6204 12.1533 24.854 11.7154 24.2336 11.7519C23.6131 11.7519 23.3576 12.1898 23.6861 12.7008C24.0146 13.2117 24.781 13.6497 25.4014 13.6132C26.0219 13.5767 26.2774 13.1752 25.9489 12.6643Z" fill="white"/>
<path d="M28.8686 12.7371L28.8321 12.7006C28.5036 12.2262 27.7737 11.8247 27.1532 11.8247C26.5328 11.8247 26.2773 12.2627 26.6058 12.7736C26.8613 13.1751 27.3722 13.5035 27.8832 13.6495C28.0291 13.686 28.1751 13.7225 28.3211 13.7225C28.9051 13.686 29.1605 13.2481 28.8686 12.7371Z" fill="white"/>
<path d="M27.2627 15.1094C27.1532 14.9634 27.0438 14.8175 26.8978 14.708C26.5328 14.416 26.0219 14.197 25.5474 14.197C24.927 14.197 24.6715 14.635 25 15.1459C25.1824 15.4379 25.5109 15.7299 25.9124 15.8759C26.1678 15.9853 26.4598 16.0583 26.7153 16.0583C27.2992 16.0583 27.5547 15.6204 27.2627 15.1094Z" fill="white"/>
<path d="M28.6131 8.68619C29.2335 8.68619 29.489 8.24824 29.1606 7.73729C28.8321 7.22634 28.0657 6.78839 27.4452 6.82488C26.8248 6.82488 26.5693 7.26283 26.8978 7.77378C27.2262 8.28473 27.9927 8.72268 28.6131 8.68619Z" fill="white"/>
</svg>
